<svg width="25" height="25" viewBox="0 0 25 25" fill="none" xmlns="http://www.w3.org/2000/svg">
<path d="M18.9309 21.875C18.0431 21.875 17.1753 21.6115 16.4371 21.1179C15.6989 20.6243 15.1236 19.9227 14.7838 19.1019C14.4441 18.2811 14.3552 17.3778 14.5284 16.5064C14.7016 15.635 15.1291 14.8346 15.7569 14.2064C16.3846 13.5781 17.1845 13.1503 18.0552 12.9769C18.9259 12.8036 19.8285 12.8926 20.6487 13.2326C21.4689 13.5726 22.17 14.1484 22.6632 14.8871C23.1565 15.6258 23.4197 16.4943 23.4197 17.3828C23.4184 18.5738 22.9451 19.7157 22.1036 20.5578C21.262 21.4 20.121 21.8737 18.9309 21.875ZM18.9309 14.4531C18.3519 14.4531 17.7859 14.6249 17.3045 14.9469C16.8231 15.2688 16.4479 15.7263 16.2263 16.2617C16.0047 16.797 15.9468 17.3861 16.0597 17.9544C16.1727 18.5227 16.4515 19.0447 16.8609 19.4544C17.2703 19.8641 17.7919 20.1432 18.3598 20.2562C18.9277 20.3692 19.5163 20.3112 20.0512 20.0895C20.5861 19.8678 21.0434 19.4922 21.365 19.0105C21.6867 18.5287 21.8584 17.9623 21.8584 17.3828C21.8575 16.6061 21.5488 15.8614 21 15.3122C20.4512 14.763 19.7071 14.454 18.9309 14.4531Z" fill="#1D2E5B"/>
<path d="M6.05007 21.875C5.16227 21.875 4.29441 21.6115 3.55623 21.1179C2.81805 20.6243 2.24272 19.9227 1.90297 19.1019C1.56322 18.2811 1.47433 17.3778 1.64753 16.5064C1.82073 15.635 2.24825 14.8346 2.87602 14.2064C3.50378 13.5781 4.30361 13.1503 5.17435 12.9769C6.04509 12.8036 6.94763 12.8926 7.76785 13.2326C8.58807 13.5726 9.28912 14.1484 9.78236 14.8871C10.2756 15.6258 10.5389 16.4943 10.5389 17.3828C10.5376 18.5738 10.0642 19.7157 9.22269 20.5578C8.38116 21.4 7.24017 21.8737 6.05007 21.875ZM6.05007 14.4531C5.47107 14.4531 4.90507 14.6249 4.42365 14.9469C3.94223 15.2688 3.56701 15.7263 3.34544 16.2617C3.12387 16.797 3.06589 17.3861 3.17885 17.9544C3.29181 18.5227 3.57062 19.0447 3.98003 19.4544C4.38945 19.8641 4.91107 20.1432 5.47895 20.2562C6.04682 20.3692 6.63544 20.3112 7.17036 20.0895C7.70529 19.8678 8.1625 19.4922 8.48417 19.0105C8.80585 18.5287 8.97754 17.9623 8.97754 17.3828C8.97663 16.6061 8.66791 15.8614 8.1191 15.3122C7.57029 14.763 6.8262 14.454 6.05007 14.4531Z" fill="#1D2E5B"/>
<path d="M15.6132 6.25002C15.8189 6.25073 16.0226 6.21064 16.2127 6.13207C16.4027 6.05349 16.5754 5.93799 16.7205 5.79224C16.8657 5.64648 16.9806 5.47338 17.0585 5.28292C17.1365 5.09246 17.1759 4.88843 17.1745 4.68264C17.1768 4.47787 17.1383 4.2747 17.0612 4.08501C16.984 3.89532 16.8699 3.72292 16.7255 3.57789C16.581 3.43286 16.4091 3.31811 16.2198 3.24035C16.0305 3.16259 15.8276 3.12338 15.623 3.12502C15.4179 3.12438 15.2148 3.16416 15.0251 3.24209C14.8354 3.32002 14.663 3.43457 14.5175 3.57921C14.3721 3.72385 14.2565 3.89574 14.1775 4.08506C14.0984 4.27439 14.0574 4.47745 14.0568 4.68264C14.0561 4.88783 14.0959 5.09113 14.1738 5.28095C14.2516 5.47077 14.3661 5.64338 14.5106 5.78892C14.6551 5.93447 14.8269 6.0501 15.0161 6.12921C15.2053 6.20833 15.4082 6.24938 15.6132 6.25002Z" fill="#1D2E5B"/>
<path d="M17.9332 9.37511H15.7981C15.7631 9.37511 15.7287 9.36569 15.6986 9.34782C15.6685 9.32995 15.6437 9.30429 15.6269 9.27354L14.0783 6.43321C13.9691 6.22213 13.8119 6.03973 13.6193 5.90077C13.4266 5.76181 13.204 5.6702 12.9694 5.63336C12.7348 5.59651 12.4948 5.61546 12.2689 5.68868C12.043 5.76189 11.8374 5.88732 11.6689 6.05479L8.2604 9.49229C7.97404 9.78479 7.8115 10.1766 7.80664 10.586C7.80664 11.4357 8.42141 11.7384 8.70928 11.9093C10.0998 12.711 11.0791 13.2975 11.6163 13.6232C11.6448 13.6406 11.6684 13.665 11.6848 13.6942C11.7012 13.7233 11.7099 13.7562 11.7099 13.7897V17.1647C11.7099 17.5851 12.0329 17.9459 12.453 17.9669C12.5585 17.972 12.6639 17.9556 12.7629 17.9188C12.8618 17.8819 12.9523 17.8253 13.0288 17.7525C13.1053 17.6796 13.1662 17.592 13.2079 17.4949C13.2495 17.3978 13.2711 17.2933 13.2713 17.1876V12.9884C13.2713 12.8644 13.2419 12.7421 13.1854 12.6317C13.1289 12.5213 13.0469 12.426 12.9463 12.3536L11.141 11.0543C11.1184 11.0381 11.0994 11.0172 11.0855 10.993C11.0716 10.9689 11.063 10.942 11.0603 10.9143C11.0577 10.8865 11.0609 10.8585 11.07 10.8321C11.079 10.8057 11.0936 10.7816 11.1127 10.7613L13.162 8.57432C13.183 8.55182 13.209 8.53461 13.2379 8.5241C13.2668 8.51359 13.2978 8.51007 13.3284 8.51383C13.3589 8.51759 13.3882 8.52852 13.4137 8.54574C13.4392 8.56296 13.4603 8.58597 13.4752 8.6129L14.5398 10.5358C14.6075 10.6576 14.7065 10.7592 14.8266 10.8299C14.9467 10.9005 15.0836 10.9377 15.2229 10.9376H17.9552C18.061 10.9377 18.1656 10.9163 18.2629 10.8748C18.3601 10.8332 18.4479 10.7722 18.5209 10.6957C18.5939 10.6191 18.6506 10.5285 18.6876 10.4293C18.7245 10.3301 18.741 10.2245 18.7359 10.1188C18.7154 9.69835 18.3533 9.37511 17.9332 9.37511Z" fill="#1D2E5B"/>
</svg>
