<svg width="22" height="24" viewBox="0 0 22 24" fill="none" xmlns="http://www.w3.org/2000/svg">
<path d="M15.4428 6C16.4462 6 17.2596 5.10457 17.2596 4C17.2596 2.89543 16.4462 2 15.4428 2C14.4394 2 13.626 2.89543 13.626 4C13.626 5.10457 14.4394 6 15.4428 6Z" fill="#1D2E5B"/>
<path d="M14.3319 10.969C14.5404 11.311 14.8395 11.5742 15.1886 11.7227C15.5377 11.8712 15.9198 11.8978 16.2831 11.799L19.2954 10.97L18.8566 9.02997L15.8444 9.85897L14.5917 7.79197C14.324 7.35053 13.9087 7.04354 13.4362 6.93797L9.94248 6.16797C9.55163 6.08162 9.14583 6.13933 8.78775 6.33217C8.42966 6.52502 8.13921 6.84229 7.96125 7.23497L6.45512 10.551L8.08025 11.446L9.58639 8.12897L11.3732 8.52297L6.75308 17H2.72522V19H6.75308C7.38714 19 7.98396 18.628 8.31099 18.029L10.0533 14.833L14.7488 15.867L16.3985 21.316L18.1208 20.683L16.4721 15.235C16.3703 14.9005 16.1903 14.6014 15.9501 14.3679C15.7099 14.1345 15.4181 13.9748 15.104 13.905L12.3434 13.298L13.9531 10.344L14.3319 10.969Z" fill="#1D2E5B"/>
</svg>
