<svg width="23" height="22" viewBox="0 0 23 22" fill="none" xmlns="http://www.w3.org/2000/svg">
<path d="M16.2794 5.50001C17.3371 5.50001 18.1946 4.6792 18.1946 3.66668C18.1946 2.65415 17.3371 1.83334 16.2794 1.83334C15.2216 1.83334 14.3641 2.65415 14.3641 3.66668C14.3641 4.6792 15.2216 5.50001 16.2794 5.50001Z" fill="#1D2E5B"/>
<path d="M15.1082 10.0549C15.328 10.3685 15.6433 10.6097 16.0113 10.7458C16.3793 10.8819 16.7821 10.9063 17.1651 10.8157L20.3405 10.0558L19.878 8.27747L16.7026 9.03739L15.382 7.14264C15.0999 6.73799 14.662 6.45658 14.164 6.3598L10.481 5.65397C10.069 5.57482 9.6412 5.62772 9.26372 5.80449C8.88624 5.98127 8.58005 6.2721 8.39245 6.63205L6.80474 9.67172L8.5179 10.4921L10.1056 7.45155L11.9892 7.81272L7.11884 15.5833H2.8728V17.4166H7.11884C7.78725 17.4166 8.4164 17.0756 8.76113 16.5266L10.5978 13.5969L15.5477 14.5447L17.2867 19.5396L19.1023 18.9594L17.3643 13.9654C17.257 13.6588 17.0672 13.3847 16.8141 13.1706C16.5609 12.9566 16.2532 12.8102 15.9221 12.7462L13.012 12.1898L14.7088 9.48197L15.1082 10.0549Z" fill="#1D2E5B"/>
</svg>
