<svg width="22" height="22" viewBox="0 0 22 22" fill="none" xmlns="http://www.w3.org/2000/svg">
<g clip-path="url(#clip0_3_984)">
<path d="M17.7161 1.18341C16.9471 1.3637 16.1745 1.54485 15.8872 2.04149L13.6635 6.41438L1.72037 9.21451L1.23669 10.6118L10.3763 11.4659L8.82619 15.2516L5.36023 16.0642L4.49024 17.552L6.99079 17.8203L7.27611 19.0373C7.40392 19.4687 7.85234 19.7567 8.23504 19.667L9.39036 19.3961L10.73 21.6497L11.6 20.1619L10.744 16.5111L13.2531 13.3551L18.0426 21.6484L19.008 20.5675L16.0594 7.99105L18.7648 3.9345C19.0557 3.43701 18.8658 2.62698 18.675 1.81314C18.5805 1.41002 18.0988 1.09368 17.7161 1.18341Z" fill="#1D2E5B"/>
</g>
<defs>
<clipPath id="clip0_3_984">
<rect width="21.9833" height="22" fill="white"/>
</clipPath>
</defs>
</svg>
