<svg width="23" height="22" viewBox="0 0 23 22"  fill="#1D2E5B" xmlns="http://www.w3.org/2000/svg">
<path d="M17.4166 19.25C16.5998 19.25 15.8013 19.0182 15.1222 18.5838C14.4431 18.1494 13.9138 17.532 13.6012 16.8097C13.2887 16.0873 13.2069 15.2925 13.3662 14.5257C13.5256 13.7588 13.9189 13.0544 14.4964 12.5016C15.074 11.9487 15.8098 11.5722 16.6109 11.4197C17.412 11.2672 18.2423 11.3455 18.9969 11.6447C19.7515 11.9439 20.3965 12.4506 20.8503 13.1006C21.304 13.7507 21.5462 14.515 21.5462 15.2969C21.545 16.345 21.1096 17.3498 20.3354 18.0909C19.5612 18.832 18.5114 19.2489 17.4166 19.25ZM17.4166 12.7188C16.8839 12.7188 16.3632 12.87 15.9202 13.1532C15.4773 13.4365 15.1321 13.8392 14.9283 14.3103C14.7244 14.7814 14.6711 15.2997 14.775 15.7998C14.879 16.3 15.1355 16.7593 15.5121 17.1199C15.8888 17.4804 16.3687 17.726 16.8911 17.8255C17.4136 17.9249 17.9551 17.8739 18.4472 17.6788C18.9394 17.4836 19.36 17.1532 19.6559 16.7292C19.9519 16.3052 20.1098 15.8068 20.1098 15.2969C20.109 14.6134 19.825 13.9581 19.3201 13.4747C18.8152 12.9914 18.1306 12.7195 17.4166 12.7188Z" />
<path d="M5.56609 19.25C4.74931 19.25 3.95088 19.0182 3.27176 18.5838C2.59263 18.1494 2.06332 17.532 1.75076 16.8097C1.43819 16.0873 1.35641 15.2925 1.51575 14.5257C1.6751 13.7588 2.06841 13.0544 2.64596 12.5016C3.22351 11.9487 3.95935 11.5722 4.76043 11.4197C5.56151 11.2672 6.39185 11.3455 7.14645 11.6447C7.90105 11.9439 8.54602 12.4506 8.99979 13.1006C9.45357 13.7507 9.69577 14.515 9.69577 15.2969C9.69458 16.345 9.25911 17.3498 8.4849 18.0909C7.71069 18.832 6.66098 19.2489 5.56609 19.25ZM5.56609 12.7188C5.03341 12.7188 4.51269 12.87 4.06979 13.1532C3.62688 13.4365 3.28168 13.8392 3.07783 14.3103C2.87398 14.7814 2.82065 15.2997 2.92457 15.7998C3.02849 16.3 3.285 16.7593 3.66166 17.1199C4.03832 17.4804 4.51821 17.726 5.04066 17.8255C5.5631 17.9249 6.10463 17.8739 6.59676 17.6788C7.08889 17.4836 7.50952 17.1532 7.80546 16.7292C8.1014 16.3052 8.25936 15.8068 8.25936 15.2969C8.25853 14.6134 7.97451 13.9581 7.4696 13.4747C6.96469 12.9914 6.28013 12.7195 5.56609 12.7188Z" />
<path d="M14.3641 5.50001C14.5533 5.50064 14.7407 5.46536 14.9156 5.39622C15.0904 5.32707 15.2492 5.22543 15.3828 5.09716C15.5164 4.9689 15.6221 4.81657 15.6938 4.64896C15.7654 4.48136 15.8017 4.30182 15.8005 4.12072C15.8026 3.94052 15.7671 3.76173 15.6962 3.5948C15.6252 3.42788 15.5202 3.27617 15.3873 3.14854C15.2544 3.02091 15.0963 2.91993 14.9221 2.85151C14.7479 2.78308 14.5613 2.74857 14.373 2.75001C14.1844 2.74945 13.9975 2.78445 13.823 2.85303C13.6485 2.92161 13.4898 3.02242 13.356 3.1497C13.2222 3.27698 13.1159 3.42825 13.0432 3.59485C12.9705 3.76146 12.9327 3.94015 12.9321 4.12072C12.9315 4.30128 12.9681 4.48019 13.0398 4.64723C13.1114 4.81427 13.2167 4.96617 13.3497 5.09425C13.4826 5.22233 13.6407 5.32408 13.8147 5.3937C13.9888 5.46332 14.1754 5.49945 14.3641 5.50001Z" />
<path d="M16.4985 8.25007H14.5342C14.502 8.25008 14.4703 8.24178 14.4426 8.22606C14.4149 8.21033 14.3921 8.18776 14.3766 8.1607L12.9519 5.6612C12.8515 5.47545 12.7068 5.31494 12.5296 5.19266C12.3524 5.07037 12.1475 4.98976 11.9317 4.95733C11.7159 4.92491 11.4951 4.94158 11.2873 5.00601C11.0794 5.07044 10.8903 5.18082 10.7353 5.3282L7.59946 8.3532C7.33602 8.61059 7.18648 8.95537 7.18201 9.3157C7.18201 10.0634 7.74759 10.3298 8.01243 10.4801C9.29174 11.1857 10.1926 11.7018 10.6869 11.9884C10.7131 12.0037 10.7348 12.0252 10.7499 12.0508C10.765 12.0765 10.773 12.1054 10.773 12.1349V15.1049C10.773 15.4748 11.0702 15.7924 11.4567 15.8109C11.5537 15.8153 11.6507 15.8009 11.7417 15.7685C11.8328 15.736 11.916 15.6863 11.9864 15.6222C12.0567 15.5581 12.1128 15.4809 12.1511 15.3955C12.1895 15.3101 12.2093 15.2181 12.2094 15.1251V11.4298C12.2095 11.3206 12.1824 11.213 12.1304 11.1159C12.0785 11.0188 12.0031 10.9349 11.9105 10.8712L10.2496 9.72777C10.2288 9.71349 10.2114 9.6951 10.1986 9.67384C10.1858 9.65259 10.1779 9.62895 10.1754 9.60453C10.1729 9.5801 10.176 9.55545 10.1843 9.53224C10.1926 9.50903 10.206 9.48779 10.2236 9.46995L12.1089 7.54538C12.1282 7.52558 12.1522 7.51044 12.1788 7.50119C12.2054 7.49193 12.2339 7.48884 12.262 7.49215C12.2901 7.49546 12.317 7.50508 12.3405 7.52023C12.3639 7.53538 12.3833 7.55563 12.3971 7.57933L13.3765 9.27144C13.4388 9.3787 13.5299 9.46806 13.6404 9.53025C13.7509 9.59243 13.8768 9.62517 14.005 9.62507H16.5187C16.616 9.62518 16.7123 9.60636 16.8018 9.56976C16.8912 9.53316 16.972 9.47954 17.0392 9.41215C17.1063 9.34477 17.1585 9.26502 17.1925 9.17775C17.2265 9.09048 17.2416 8.99751 17.2369 8.90448C17.218 8.53452 16.885 8.25007 16.4985 8.25007Z"/>
</svg>
