<svg width="23" height="22" viewBox="0 0 23 22" fill="none" xmlns="http://www.w3.org/2000/svg">
<g clip-path="url(#clip0_3_1309)">
<path d="M5.74692 14.9286C5.74692 14.4948 5.55996 14.1244 5.18605 13.8175C4.81214 13.5106 4.36096 13.3571 3.8325 13.3571C3.30404 13.3571 2.85285 13.5106 2.47895 13.8175C2.10504 14.1244 1.91808 14.4948 1.91808 14.9286C1.91808 15.3624 2.10504 15.7327 2.47895 16.0396C2.85285 16.3465 3.30404 16.5 3.8325 16.5C4.36096 16.5 4.81214 16.3465 5.18605 16.0396C5.55996 15.7327 5.74692 15.3624 5.74692 14.9286ZM21.0623 14.9286C21.0623 14.4948 20.8753 14.1244 20.5014 13.8175C20.1275 13.5106 19.6763 13.3571 19.1478 13.3571C18.6194 13.3571 18.1682 13.5106 17.7943 13.8175C17.4204 14.1244 17.2334 14.4948 17.2334 14.9286C17.2334 15.3624 17.4204 15.7327 17.7943 16.0396C18.1682 16.3465 18.6194 16.5 19.1478 16.5C19.6763 16.5 20.1275 16.3465 20.5014 16.0396C20.8753 15.7327 21.0623 15.3624 21.0623 14.9286ZM20.3743 10.067L19.2974 5.35268C19.2476 5.16443 19.1354 5.01097 18.9609 4.8923C18.7864 4.77362 18.5845 4.71429 18.3552 4.71429H4.62519C4.39586 4.71429 4.19394 4.77362 4.01945 4.8923C3.84496 5.01097 3.73279 5.16443 3.68293 5.35268L2.60607 10.067C2.55622 10.3125 2.62602 10.5294 2.81546 10.7176C3.00491 10.9059 3.2492 11 3.54833 11H19.432C19.7311 11 19.9754 10.9059 20.1649 10.7176C20.3543 10.5294 20.4241 10.3125 20.3743 10.067ZM16.9941 2.55357C16.9941 2.38988 16.9243 2.25074 16.7847 2.13616C16.6451 2.02158 16.4756 1.96429 16.2762 1.96429H6.70413C6.50471 1.96429 6.3352 2.02158 6.19561 2.13616C6.05602 2.25074 5.98622 2.38988 5.98622 2.55357C5.98622 2.71726 6.05602 2.8564 6.19561 2.97098C6.3352 3.08557 6.50471 3.14286 6.70413 3.14286H16.2762C16.4756 3.14286 16.6451 3.08557 16.7847 2.97098C16.9243 2.8564 16.9941 2.71726 16.9941 2.55357ZM22.9767 11.4542V18.8571H21.0623V20.4286C21.0623 20.8624 20.8753 21.2327 20.5014 21.5396C20.1275 21.8465 19.6763 22 19.1478 22C18.6194 22 18.1682 21.8465 17.7943 21.5396C17.4204 21.2327 17.2334 20.8624 17.2334 20.4286V18.8571H5.74692V20.4286C5.74692 20.8624 5.55996 21.2327 5.18605 21.5396C4.81214 21.8465 4.36096 22 3.8325 22C3.30404 22 2.85285 21.8465 2.47895 21.5396C2.10504 21.2327 1.91808 20.8624 1.91808 20.4286V18.8571H0.00366211V11.4542C0.00366211 10.5376 0.128299 9.625 0.377572 8.71652L1.91808 3.14286C2.00782 2.50446 2.4939 1.94382 3.37633 1.46094C4.25876 0.978051 5.40541 0.613839 6.8163 0.368304C8.22719 0.122768 9.78514 0 11.4902 0C13.1952 0 14.7532 0.122768 16.164 0.368304C17.5749 0.613839 18.7216 0.978051 19.604 1.46094C20.4864 1.94382 20.9725 2.50446 21.0623 3.14286L22.6327 8.71652C22.862 9.55134 22.9767 10.4639 22.9767 11.4542Z" fill="#1D2E5B"/>
</g>
<defs>
<clipPath id="clip0_3_1309">
<rect width="22.9826" height="22" fill="white"/>
</clipPath>
</defs>
</svg>
