<svg width="18" height="20" viewBox="0 0 18 20" fill="none" xmlns="http://www.w3.org/2000/svg">
<g clip-path="url(#clip0_3_986)">
<path d="M4.49753 13.5714C4.49753 13.1771 4.35122 12.8404 4.05859 12.5614C3.76597 12.2824 3.41287 12.1429 2.99929 12.1429C2.58571 12.1429 2.23261 12.2824 1.93999 12.5614C1.64736 12.8404 1.50105 13.1771 1.50105 13.5714C1.50105 13.9658 1.64736 14.3025 1.93999 14.5815C2.23261 14.8605 2.58571 15 2.99929 15C3.41287 15 3.76597 14.8605 4.05859 14.5815C4.35122 14.3025 4.49753 13.9658 4.49753 13.5714ZM16.4835 13.5714C16.4835 13.1771 16.3371 12.8404 16.0445 12.5614C15.7519 12.2824 15.3988 12.1429 14.9852 12.1429C14.5716 12.1429 14.2185 12.2824 13.9259 12.5614C13.6333 12.8404 13.487 13.1771 13.487 13.5714C13.487 13.9658 13.6333 14.3025 13.9259 14.5815C14.2185 14.8605 14.5716 15 14.9852 15C15.3988 15 15.7519 14.8605 16.0445 14.5815C16.3371 14.3025 16.4835 13.9658 16.4835 13.5714ZM15.945 9.15179L15.1023 4.86607C15.0632 4.69494 14.9755 4.55543 14.8389 4.44754C14.7023 4.33966 14.5443 4.28571 14.3648 4.28571H3.61965C3.44018 4.28571 3.28216 4.33966 3.1456 4.44754C3.00904 4.55543 2.92125 4.69494 2.88224 4.86607L2.03948 9.15179C2.00046 9.375 2.05508 9.57217 2.20335 9.7433C2.35161 9.91443 2.54279 10 2.77689 10H15.2076C15.4417 10 15.6329 9.91443 15.7812 9.7433C15.9294 9.57217 15.984 9.375 15.945 9.15179ZM13.2997 2.32143C13.2997 2.17262 13.2451 2.04613 13.1358 1.94196C13.0266 1.8378 12.8939 1.78571 12.7379 1.78571H5.24665C5.09058 1.78571 4.95793 1.8378 4.84868 1.94196C4.73943 2.04613 4.68481 2.17262 4.68481 2.32143C4.68481 2.47024 4.73943 2.59673 4.84868 2.70089C4.95793 2.80506 5.09058 2.85714 5.24665 2.85714H12.7379C12.8939 2.85714 13.0266 2.80506 13.1358 2.70089C13.2451 2.59673 13.2997 2.47024 13.2997 2.32143ZM17.9817 10.4129V17.1429H16.4835V18.5714C16.4835 18.9658 16.3371 19.3025 16.0445 19.5815C15.7519 19.8605 15.3988 20 14.9852 20C14.5716 20 14.2185 19.8605 13.9259 19.5815C13.6333 19.3025 13.487 18.9658 13.487 18.5714V17.1429H4.49753V18.5714C4.49753 18.9658 4.35122 19.3025 4.05859 19.5815C3.76597 19.8605 3.41287 20 2.99929 20C2.58571 20 2.23261 19.8605 1.93999 19.5815C1.64736 19.3025 1.50105 18.9658 1.50105 18.5714V17.1429H0.00280762V10.4129C0.00280762 9.57961 0.100349 8.75 0.295433 7.92411L1.50105 2.85714C1.57128 2.27679 1.95169 1.76711 2.64229 1.32812C3.33288 0.889137 4.23026 0.558036 5.33444 0.334821C6.43861 0.111607 7.65788 0 8.99225 0C10.3266 0 11.5459 0.111607 12.6501 0.334821C13.7542 0.558036 14.6516 0.889137 15.3422 1.32812C16.0328 1.76711 16.4132 2.27679 16.4835 2.85714L17.7125 7.92411C17.892 8.68304 17.9817 9.51265 17.9817 10.4129Z" fill="#1D2E5B"/>
</g>
<defs>
<clipPath id="clip0_3_986">
<rect width="17.9864" height="20" fill="white"/>
</clipPath>
</defs>
</svg>
